<svg width="19" height="11" viewBox="0 0 19 11" fill="none" xmlns="http://www.w3.org/2000/svg">
<path d="M0.95676 0.943318C0.845096 1.05142 0.756503 1.17984 0.696055 1.32122C0.635607 1.46261 0.604492 1.61418 0.604492 1.76725C0.604492 1.92032 0.635607 2.07189 0.696055 2.21327C0.756503 2.35466 0.845096 2.48308 0.95676 2.59118L8.9281 10.3277C9.01684 10.414 9.12225 10.4825 9.23829 10.5292C9.35434 10.576 9.47873 10.6 9.60436 10.6C9.72999 10.6 9.85439 10.576 9.97044 10.5292C10.0865 10.4825 10.1919 10.414 10.2806 10.3277L18.252 2.59118C18.722 2.13499 18.722 1.3995 18.252 0.943318C17.7819 0.48713 17.0241 0.48713 16.5541 0.943318L9.59957 7.68372L2.64503 0.93401C2.18459 0.487133 1.4172 0.487131 0.95676 0.943318Z" fill="black" fill-opacity="0.3"/>
</svg>
