<svg width="50" height="50" viewBox="0 0 50 50" fill="none" xmlns="http://www.w3.org/2000/svg">
<path fill-rule="evenodd" clip-rule="evenodd" d="M24.9913 -0.00308228C38.7964 -0.00308228 50 11.2005 50 25.0056C50 38.7933 38.7964 49.9969 24.9913 49.9969C11.1863 49.9969 0 38.7933 0 25.0056C0 11.2005 11.1863 -0.00308228 24.9913 -0.00308228Z" fill="#E31E24"/>
<path d="M33.74 30.0592C33.6983 29.8012 33.5365 29.5808 33.2943 29.4498L29.7105 27.3383L29.681 27.3217C29.5308 27.2465 29.3648 27.208 29.1968 27.2093C28.8965 27.2093 28.6098 27.323 28.4108 27.5225L27.353 28.5807C27.3078 28.6237 27.1603 28.686 27.1155 28.6882C27.1033 28.6872 25.8848 28.5995 23.6415 26.356C21.4023 24.1172 21.3073 22.895 21.3065 22.895C21.3078 22.8325 21.3693 22.6855 21.413 22.64L22.315 21.7382C22.6328 21.4197 22.728 20.8917 22.5395 20.4827L20.5475 16.7345C20.4028 16.4365 20.1215 16.2525 19.8095 16.2525C19.5888 16.2525 19.3758 16.344 19.2093 16.5102L16.7505 18.9635C16.5148 19.198 16.3118 19.608 16.2675 19.938C16.246 20.0957 15.8098 23.8612 20.9723 29.0245C25.355 33.4067 28.7725 33.7472 29.7163 33.7472C29.8312 33.7487 29.9461 33.7428 30.0603 33.7295C30.3893 33.6855 30.7988 33.483 31.033 33.2482L33.4898 30.7917C33.6903 30.5903 33.7818 30.324 33.74 30.0592Z" fill="white"/>
</svg>
